name ./resultDataOpenSim/trcMotMarkerGrf/sub06/grf-01-03.mot
datacolumns 19
datarows 27
range 0.51200000 0.61600000
endheader

                time	     ground_force_vx	     ground_force_vy	     ground_force_vz	     ground_force_px	     ground_force_py	     ground_force_pz	   l_ground_force_vx	   l_ground_force_vy	   l_ground_force_vz	   l_ground_force_px	   l_ground_force_py	   l_ground_force_pz	     ground_torque_x	     ground_torque_y	     ground_torque_z	   l_ground_torque_x	   l_ground_torque_y	   l_ground_torque_z	
          0.51200000	         93.78770526	        647.24522454	        -19.83722878	         -0.78213091	          0.00000000	          0.07001760	          0.00000000	          0.00000000	          0.00000000	          0.00000000	          0.00000000	          0.00000000	          0.00000000	          1.39943107	          0.00000000	          0.00000000	          0.00000000	          0.00000000	
          0.51600000	         97.05583885	        664.58953612	        -19.48604964	         -0.78058816	          0.00000000	          0.06972033	          0.00000000	          0.00000000	          0.00000000	          0.00000000	          0.00000000	          0.00000000	          0.00000000	          1.46168167	          0.00000000	          0.00000000	          0.00000000	          0.00000000	
          0.52000000	        100.78798224	        681.31302133	        -19.42241700	         -0.77915127	          0.00000000	          0.06942926	          0.00000000	          0.00000000	          0.00000000	          0.00000000	          0.00000000	          0.00000000	          0.00000000	          1.48423402	          0.00000000	          0.00000000	          0.00000000	          0.00000000	
          0.52400000	        105.04377608	        697.32507088	        -19.61292242	         -0.77783216	          0.00000000	          0.06913804	          0.00000000	          0.00000000	          0.00000000	          0.00000000	          0.00000000	          0.00000000	          0.00000000	          1.46831188	          0.00000000	          0.00000000	          0.00000000	          0.00000000	
          0.52800000	        109.80147172	        712.54310276	        -19.96332824	         -0.77661644	          0.00000000	          0.06884290	          0.00000000	          0.00000000	          0.00000000	          0.00000000	          0.00000000	          0.00000000	          0.00000000	          1.42312173	          0.00000000	          0.00000000	          0.00000000	          0.00000000	
          0.53200000	        114.98047023	        726.90120431	        -20.34288345	         -0.77549094	          0.00000000	          0.06854047	          0.00000000	          0.00000000	          0.00000000	          0.00000000	          0.00000000	          0.00000000	          0.00000000	          1.36348465	          0.00000000	          0.00000000	          0.00000000	          0.00000000	
          0.53600000	        120.47709012	        740.33945507	        -20.61048867	         -0.77445356	          0.00000000	          0.06822925	          0.00000000	          0.00000000	          0.00000000	          0.00000000	          0.00000000	          0.00000000	          0.00000000	          1.30626207	          0.00000000	          0.00000000	          0.00000000	          0.00000000	
          0.54000000	        126.20147232	        752.78088201	        -20.64099128	         -0.77349643	          0.00000000	          0.06791219	          0.00000000	          0.00000000	          0.00000000	          0.00000000	          0.00000000	          0.00000000	          0.00000000	          1.26651129	          0.00000000	          0.00000000	          0.00000000	          0.00000000	
          0.54400000	        132.10059401	        764.12357711	        -20.34903917	         -0.77259972	          0.00000000	          0.06759665	          0.00000000	          0.00000000	          0.00000000	          0.00000000	          0.00000000	          0.00000000	          0.00000000	          1.25428782	          0.00000000	          0.00000000	          0.00000000	          0.00000000	
          0.54800000	        138.15948714	        774.25393483	        -19.70634372	         -0.77174268	          0.00000000	          0.06728890	          0.00000000	          0.00000000	          0.00000000	          0.00000000	          0.00000000	          0.00000000	          0.00000000	          1.27278605	          0.00000000	          0.00000000	          0.00000000	          0.00000000	
          0.55200000	        144.38753471	        783.07046931	        -18.74982168	         -0.77091805	          0.00000000	          0.06698728	          0.00000000	          0.00000000	          0.00000000	          0.00000000	          0.00000000	          0.00000000	          0.00000000	          1.31813398	          0.00000000	          0.00000000	          0.00000000	          0.00000000	
          0.55600000	        150.80308637	        790.49716787	        -17.57535822	         -0.77013593	          0.00000000	          0.06668545	          0.00000000	          0.00000000	          0.00000000	          0.00000000	          0.00000000	          0.00000000	          0.00000000	          1.38073844	          0.00000000	          0.00000000	          0.00000000	          0.00000000	
          0.56000000	        157.41873456	        796.46754391	        -16.31450619	         -0.76940824	          0.00000000	          0.06638109	          0.00000000	          0.00000000	          0.00000000	          0.00000000	          0.00000000	          0.00000000	          0.00000000	          1.44772863	          0.00000000	          0.00000000	          0.00000000	          0.00000000	
          0.56400000	        164.22239971	        800.89671573	        -15.10256234	         -0.76873173	          0.00000000	          0.06607786	          0.00000000	          0.00000000	          0.00000000	          0.00000000	          0.00000000	          0.00000000	          0.00000000	          1.50584635	          0.00000000	          0.00000000	          0.00000000	          0.00000000	
          0.56800000	        171.16171097	        803.67750354	        -14.04965767	         -0.76808789	          0.00000000	          0.06578109	          0.00000000	          0.00000000	          0.00000000	          0.00000000	          0.00000000	          0.00000000	          0.00000000	          1.54412123	          0.00000000	          0.00000000	          0.00000000	          0.00000000	
          0.57200000	        178.14521341	        804.70387737	        -13.21971522	         -0.76744909	          0.00000000	          0.06549390	          0.00000000	          0.00000000	          0.00000000	          0.00000000	          0.00000000	          0.00000000	          0.00000000	          1.55582088	          0.00000000	          0.00000000	          0.00000000	          0.00000000	
          0.57600000	        185.05947675	        803.89912143	        -12.61817212	         -0.76678957	          0.00000000	          0.06521589	          0.00000000	          0.00000000	          0.00000000	          0.00000000	          0.00000000	          0.00000000	          0.00000000	          1.53937950	          0.00000000	          0.00000000	          0.00000000	          0.00000000	
          0.58000000	        191.78904795	        801.23261064	        -12.19064718	         -0.76610145	          0.00000000	          0.06494293	          0.00000000	          0.00000000	          0.00000000	          0.00000000	          0.00000000	          0.00000000	          0.00000000	          1.49820047	          0.00000000	          0.00000000	          0.00000000	          0.00000000	
          0.58400000	        198.22984455	        796.71268188	        -11.83494920	         -0.76539048	          0.00000000	          0.06466902	          0.00000000	          0.00000000	          0.00000000	          0.00000000	          0.00000000	          0.00000000	          0.00000000	          1.43940644	          0.00000000	          0.00000000	          0.00000000	          0.00000000	
          0.58800000	        204.29590558	        790.35562409	        -11.42435530	         -0.76466290	          0.00000000	          0.06438945	          0.00000000	          0.00000000	          0.00000000	          0.00000000	          0.00000000	          0.00000000	          0.00000000	          1.37180592	          0.00000000	          0.00000000	          0.00000000	          0.00000000	
          0.59200000	        209.92306525	        782.15718516	        -10.83667892	         -0.76392476	          0.00000000	          0.06409806	          0.00000000	          0.00000000	          0.00000000	          0.00000000	          0.00000000	          0.00000000	          0.00000000	          1.30350882	          0.00000000	          0.00000000	          0.00000000	          0.00000000	
          0.59600000	        215.07178050	        772.08452172	         -9.98243829	         -0.76318294	          0.00000000	          0.06378799	          0.00000000	          0.00000000	          0.00000000	          0.00000000	          0.00000000	          0.00000000	          0.00000000	          1.23967725	          0.00000000	          0.00000000	          0.00000000	          0.00000000	
          0.60000000	        219.73001209	        760.07908445	         -8.82133138	         -0.76245472	          0.00000000	          0.06345374	          0.00000000	          0.00000000	          0.00000000	          0.00000000	          0.00000000	          0.00000000	          0.00000000	          1.18084745	          0.00000000	          0.00000000	          0.00000000	          0.00000000	
          0.60400000	        223.91172530	        746.05029153	         -7.36217018	         -0.76177929	          0.00000000	          0.06308834	          0.00000000	          0.00000000	          0.00000000	          0.00000000	          0.00000000	          0.00000000	          0.00000000	          1.12217936	          0.00000000	          0.00000000	          0.00000000	          0.00000000	
          0.60800000	        227.63851894	        729.84588737	         -5.65554596	         -0.76118725	          0.00000000	          0.06269853	         -5.11986227	         10.11004610	         -2.62468879	         -0.11720496	          0.00000000	         -0.01922390	          0.00000000	          1.05392873	          0.00000000	          0.00000000	         -0.02450210	          0.00000000	
          0.61200000	        230.90089294	        711.21840172	         -3.78439857	         -0.76069543	          0.00000000	          0.06229738	        -17.21406708	        116.65892928	         -7.99194482	         -0.11442007	          0.00000000	         -0.01885655	          0.00000000	          0.96329181	          0.00000000	          0.00000000	         -0.04313252	          0.00000000	
          0.61600000	        233.61647111	        689.81919528	         -1.84639173	         -0.76031146	          0.00000000	          0.06189198	        -30.07879546	        213.15475151	        -13.21596479	         -0.11216719	          0.00000000	         -0.01858031	          0.00000000	          0.83742709	          0.00000000	          0.00000000	         -0.06557272	          0.00000000	
